<mxfile host="app.diagrams.net" modified="2022-09-10T21:24:32.419Z" agent="5.0 (Windows NT 6.3; Win64; x64) AppleWebKit/537.36 (KHTML, like Gecko) Chrome/103.0.0.0 Safari/537.36" etag="MkYO-j8WW1h0mK3rQo-P" version="20.3.0" type="github">
  <diagram id="3WcsxsAvB8rN0i1L9eVD" name="Página-1">
    <mxGraphModel dx="868" dy="482" grid="1" gridSize="10" guides="1" tooltips="1" connect="1" arrows="1" fold="1" page="1" pageScale="1" pageWidth="827" pageHeight="1169" math="0" shadow="0">
      <root>
        <mxCell id="0" />
        <mxCell id="1" parent="0" />
        <mxCell id="7q7URS4LtisOOQTjVU-H-12" style="edgeStyle=orthogonalEdgeStyle;rounded=0;orthogonalLoop=1;jettySize=auto;html=1;" parent="1" source="7q7URS4LtisOOQTjVU-H-3" target="7q7URS4LtisOOQTjVU-H-8" edge="1">
          <mxGeometry relative="1" as="geometry" />
        </mxCell>
        <mxCell id="7q7URS4LtisOOQTjVU-H-3" value="Oficina" style="rounded=1;whiteSpace=wrap;html=1;" parent="1" vertex="1">
          <mxGeometry x="294" y="70" width="120" height="60" as="geometry" />
        </mxCell>
        <mxCell id="7q7URS4LtisOOQTjVU-H-14" style="edgeStyle=orthogonalEdgeStyle;rounded=0;orthogonalLoop=1;jettySize=auto;html=1;" parent="1" source="7q7URS4LtisOOQTjVU-H-4" edge="1">
          <mxGeometry relative="1" as="geometry">
            <mxPoint x="310" y="270" as="targetPoint" />
            <Array as="points">
              <mxPoint x="120" y="270" />
            </Array>
          </mxGeometry>
        </mxCell>
        <mxCell id="7q7URS4LtisOOQTjVU-H-4" value="Cliente&amp;nbsp;" style="rounded=1;whiteSpace=wrap;html=1;" parent="1" vertex="1">
          <mxGeometry x="60" y="170" width="120" height="50" as="geometry" />
        </mxCell>
        <mxCell id="7q7URS4LtisOOQTjVU-H-19" style="edgeStyle=orthogonalEdgeStyle;rounded=0;orthogonalLoop=1;jettySize=auto;html=1;entryX=1;entryY=0.5;entryDx=0;entryDy=0;" parent="1" source="7q7URS4LtisOOQTjVU-H-6" target="7q7URS4LtisOOQTjVU-H-8" edge="1">
          <mxGeometry relative="1" as="geometry" />
        </mxCell>
        <mxCell id="7q7URS4LtisOOQTjVU-H-6" value="Mecânico Responsavel&amp;nbsp;" style="rounded=1;whiteSpace=wrap;html=1;" parent="1" vertex="1">
          <mxGeometry x="660" y="150" width="120" height="60" as="geometry" />
        </mxCell>
        <mxCell id="7q7URS4LtisOOQTjVU-H-8" value="OS" style="ellipse;whiteSpace=wrap;html=1;" parent="1" vertex="1">
          <mxGeometry x="310" y="240" width="70" height="50" as="geometry" />
        </mxCell>
        <mxCell id="7q7URS4LtisOOQTjVU-H-59" style="edgeStyle=orthogonalEdgeStyle;rounded=0;orthogonalLoop=1;jettySize=auto;html=1;exitX=0;exitY=0.5;exitDx=0;exitDy=0;entryX=1.029;entryY=0.76;entryDx=0;entryDy=0;entryPerimeter=0;" parent="1" source="7q7URS4LtisOOQTjVU-H-9" target="7q7URS4LtisOOQTjVU-H-8" edge="1">
          <mxGeometry relative="1" as="geometry" />
        </mxCell>
        <mxCell id="7q7URS4LtisOOQTjVU-H-9" value="Valor Do Serviço" style="rounded=1;whiteSpace=wrap;html=1;" parent="1" vertex="1">
          <mxGeometry x="620" y="280" width="120" height="60" as="geometry" />
        </mxCell>
        <mxCell id="7q7URS4LtisOOQTjVU-H-50" style="edgeStyle=orthogonalEdgeStyle;rounded=0;orthogonalLoop=1;jettySize=auto;html=1;entryX=0;entryY=0.5;entryDx=0;entryDy=0;" parent="1" source="7q7URS4LtisOOQTjVU-H-10" target="7q7URS4LtisOOQTjVU-H-4" edge="1">
          <mxGeometry relative="1" as="geometry">
            <mxPoint x="20" y="160" as="targetPoint" />
          </mxGeometry>
        </mxCell>
        <mxCell id="7q7URS4LtisOOQTjVU-H-10" value="Autorização do Cliente" style="rounded=1;whiteSpace=wrap;html=1;" parent="1" vertex="1">
          <mxGeometry x="10" y="60" width="110" height="45" as="geometry" />
        </mxCell>
        <mxCell id="7q7URS4LtisOOQTjVU-H-56" style="edgeStyle=orthogonalEdgeStyle;rounded=0;orthogonalLoop=1;jettySize=auto;html=1;entryX=0.25;entryY=1;entryDx=0;entryDy=0;" parent="1" source="7q7URS4LtisOOQTjVU-H-11" target="7q7URS4LtisOOQTjVU-H-9" edge="1">
          <mxGeometry relative="1" as="geometry" />
        </mxCell>
        <mxCell id="7q7URS4LtisOOQTjVU-H-11" value="Valor de Peças&amp;nbsp;" style="rounded=1;whiteSpace=wrap;html=1;" parent="1" vertex="1">
          <mxGeometry x="590" y="390" width="120" height="50" as="geometry" />
        </mxCell>
        <mxCell id="7q7URS4LtisOOQTjVU-H-27" style="edgeStyle=orthogonalEdgeStyle;rounded=0;orthogonalLoop=1;jettySize=auto;html=1;entryX=0.858;entryY=-0.067;entryDx=0;entryDy=0;entryPerimeter=0;" parent="1" source="7q7URS4LtisOOQTjVU-H-25" target="7q7URS4LtisOOQTjVU-H-3" edge="1">
          <mxGeometry relative="1" as="geometry" />
        </mxCell>
        <mxCell id="7q7URS4LtisOOQTjVU-H-25" value="ONome" style="rounded=1;whiteSpace=wrap;html=1;" parent="1" vertex="1">
          <mxGeometry x="400" y="10" width="86" height="30" as="geometry" />
        </mxCell>
        <mxCell id="7q7URS4LtisOOQTjVU-H-28" style="edgeStyle=orthogonalEdgeStyle;rounded=0;orthogonalLoop=1;jettySize=auto;html=1;" parent="1" source="7q7URS4LtisOOQTjVU-H-26" edge="1">
          <mxGeometry relative="1" as="geometry">
            <mxPoint x="420" y="120" as="targetPoint" />
            <Array as="points">
              <mxPoint x="540" y="120" />
            </Array>
          </mxGeometry>
        </mxCell>
        <mxCell id="7q7URS4LtisOOQTjVU-H-26" value="Oendereço" style="rounded=1;whiteSpace=wrap;html=1;" parent="1" vertex="1">
          <mxGeometry x="500" y="40" width="80" height="30" as="geometry" />
        </mxCell>
        <mxCell id="7q7URS4LtisOOQTjVU-H-42" value="" style="edgeStyle=orthogonalEdgeStyle;rounded=0;orthogonalLoop=1;jettySize=auto;html=1;" parent="1" source="7q7URS4LtisOOQTjVU-H-29" target="7q7URS4LtisOOQTjVU-H-6" edge="1">
          <mxGeometry relative="1" as="geometry">
            <Array as="points">
              <mxPoint x="710" y="115" />
              <mxPoint x="720" y="115" />
            </Array>
          </mxGeometry>
        </mxCell>
        <mxCell id="7q7URS4LtisOOQTjVU-H-29" value="Nome" style="rounded=1;whiteSpace=wrap;html=1;" parent="1" vertex="1">
          <mxGeometry x="670" y="50" width="90" height="30" as="geometry" />
        </mxCell>
        <mxCell id="7q7URS4LtisOOQTjVU-H-41" style="edgeStyle=orthogonalEdgeStyle;rounded=0;orthogonalLoop=1;jettySize=auto;html=1;entryX=0.833;entryY=0;entryDx=0;entryDy=0;entryPerimeter=0;" parent="1" source="7q7URS4LtisOOQTjVU-H-30" target="7q7URS4LtisOOQTjVU-H-6" edge="1">
          <mxGeometry relative="1" as="geometry">
            <mxPoint x="760" y="140" as="targetPoint" />
            <Array as="points">
              <mxPoint x="760" y="105" />
            </Array>
          </mxGeometry>
        </mxCell>
        <mxCell id="7q7URS4LtisOOQTjVU-H-30" value="Endereço" style="rounded=1;whiteSpace=wrap;html=1;" parent="1" vertex="1">
          <mxGeometry x="790" y="90" width="100" height="30" as="geometry" />
        </mxCell>
        <mxCell id="7q7URS4LtisOOQTjVU-H-38" value="" style="edgeStyle=orthogonalEdgeStyle;rounded=0;orthogonalLoop=1;jettySize=auto;html=1;" parent="1" source="7q7URS4LtisOOQTjVU-H-31" target="7q7URS4LtisOOQTjVU-H-6" edge="1">
          <mxGeometry relative="1" as="geometry">
            <Array as="points">
              <mxPoint x="810" y="165" />
              <mxPoint x="810" y="180" />
            </Array>
          </mxGeometry>
        </mxCell>
        <mxCell id="7q7URS4LtisOOQTjVU-H-31" value="COD" style="rounded=1;whiteSpace=wrap;html=1;" parent="1" vertex="1">
          <mxGeometry x="840" y="150" width="120" height="30" as="geometry" />
        </mxCell>
        <mxCell id="7q7URS4LtisOOQTjVU-H-35" style="edgeStyle=orthogonalEdgeStyle;rounded=0;orthogonalLoop=1;jettySize=auto;html=1;" parent="1" source="7q7URS4LtisOOQTjVU-H-34" target="7q7URS4LtisOOQTjVU-H-6" edge="1">
          <mxGeometry relative="1" as="geometry" />
        </mxCell>
        <mxCell id="7q7URS4LtisOOQTjVU-H-34" value="Especialização" style="rounded=1;whiteSpace=wrap;html=1;" parent="1" vertex="1">
          <mxGeometry x="850" y="230" width="110" height="30" as="geometry" />
        </mxCell>
        <mxCell id="7q7URS4LtisOOQTjVU-H-60" style="edgeStyle=orthogonalEdgeStyle;rounded=0;orthogonalLoop=1;jettySize=auto;html=1;entryX=0.671;entryY=1;entryDx=0;entryDy=0;entryPerimeter=0;" parent="1" source="7q7URS4LtisOOQTjVU-H-45" target="7q7URS4LtisOOQTjVU-H-8" edge="1">
          <mxGeometry relative="1" as="geometry" />
        </mxCell>
        <mxCell id="7q7URS4LtisOOQTjVU-H-45" value="Ordem de Servico&amp;nbsp;" style="rounded=1;whiteSpace=wrap;html=1;" parent="1" vertex="1">
          <mxGeometry x="380" y="370" width="100" height="40" as="geometry" />
        </mxCell>
        <mxCell id="7q7URS4LtisOOQTjVU-H-51" style="edgeStyle=orthogonalEdgeStyle;rounded=0;orthogonalLoop=1;jettySize=auto;html=1;entryX=0.5;entryY=0;entryDx=0;entryDy=0;" parent="1" source="7q7URS4LtisOOQTjVU-H-46" target="7q7URS4LtisOOQTjVU-H-4" edge="1">
          <mxGeometry relative="1" as="geometry" />
        </mxCell>
        <mxCell id="7q7URS4LtisOOQTjVU-H-46" value="CNome" style="rounded=1;whiteSpace=wrap;html=1;" parent="1" vertex="1">
          <mxGeometry x="110" y="10" width="70" height="30" as="geometry" />
        </mxCell>
        <mxCell id="7q7URS4LtisOOQTjVU-H-52" style="edgeStyle=orthogonalEdgeStyle;rounded=0;orthogonalLoop=1;jettySize=auto;html=1;entryX=1;entryY=0.75;entryDx=0;entryDy=0;" parent="1" source="7q7URS4LtisOOQTjVU-H-48" target="7q7URS4LtisOOQTjVU-H-4" edge="1">
          <mxGeometry relative="1" as="geometry" />
        </mxCell>
        <mxCell id="7q7URS4LtisOOQTjVU-H-48" value="Cendereço" style="rounded=1;whiteSpace=wrap;html=1;" parent="1" vertex="1">
          <mxGeometry x="170" y="77.5" width="100" height="27.5" as="geometry" />
        </mxCell>
        <mxCell id="7q7URS4LtisOOQTjVU-H-61" style="edgeStyle=orthogonalEdgeStyle;rounded=0;orthogonalLoop=1;jettySize=auto;html=1;entryX=1;entryY=1;entryDx=0;entryDy=0;" parent="1" source="7q7URS4LtisOOQTjVU-H-53" target="7q7URS4LtisOOQTjVU-H-8" edge="1">
          <mxGeometry relative="1" as="geometry">
            <mxPoint x="380" y="300" as="targetPoint" />
            <Array as="points">
              <mxPoint x="485" y="310" />
              <mxPoint x="380" y="310" />
              <mxPoint x="380" y="283" />
            </Array>
          </mxGeometry>
        </mxCell>
        <mxCell id="7q7URS4LtisOOQTjVU-H-53" value="N°" style="rounded=1;whiteSpace=wrap;html=1;" parent="1" vertex="1">
          <mxGeometry x="450" y="320" width="70" height="30" as="geometry" />
        </mxCell>
        <mxCell id="7q7URS4LtisOOQTjVU-H-58" style="edgeStyle=orthogonalEdgeStyle;rounded=0;orthogonalLoop=1;jettySize=auto;html=1;entryX=0;entryY=1;entryDx=0;entryDy=0;" parent="1" source="7q7URS4LtisOOQTjVU-H-54" target="7q7URS4LtisOOQTjVU-H-8" edge="1">
          <mxGeometry relative="1" as="geometry" />
        </mxCell>
        <mxCell id="7q7URS4LtisOOQTjVU-H-54" value="Data de emissão" style="rounded=1;whiteSpace=wrap;html=1;" parent="1" vertex="1">
          <mxGeometry x="180" y="310" width="110" height="30" as="geometry" />
        </mxCell>
        <mxCell id="7q7URS4LtisOOQTjVU-H-57" style="edgeStyle=orthogonalEdgeStyle;rounded=0;orthogonalLoop=1;jettySize=auto;html=1;entryX=0.5;entryY=1;entryDx=0;entryDy=0;" parent="1" source="7q7URS4LtisOOQTjVU-H-55" target="7q7URS4LtisOOQTjVU-H-8" edge="1">
          <mxGeometry relative="1" as="geometry" />
        </mxCell>
        <mxCell id="7q7URS4LtisOOQTjVU-H-55" value="Data de Entrega do Veiculo&amp;nbsp;" style="rounded=1;whiteSpace=wrap;html=1;" parent="1" vertex="1">
          <mxGeometry x="230" y="400" width="120" height="60" as="geometry" />
        </mxCell>
      </root>
    </mxGraphModel>
  </diagram>
</mxfile>
